<svg xmlns="http://www.w3.org/2000/svg" viewBox="0 0 512 512">
  <defs>
    <linearGradient id="g" x1="0" y1="0" x2="0" y2="1">
      <stop offset="0" stop-color="#F97316"/>
      <stop offset="1" stop-color="#DD4E08"/>
    </linearGradient>
  </defs>
  <rect width="512" height="512" rx="120" fill="url(#g)"/>
  <path d="M92 132 H222 V386 H92 Z" fill="#FAFAFA"/>
  <path d="M290 132 H420 V386 H290 Z" fill="#FAFAFA"/>
  <path d="M222 132 L238 153 L222 174 L238 195 L222 216 L238 237 L222 258 L238 279 L222 300 L238 321 L222 342 L238 363 L222 386 Z" fill="#DD4E08"/>
  <path d="M290 132 L274 153 L290 174 L274 195 L290 216 L274 237 L290 258 L274 279 L290 300 L274 321 L290 342 L274 363 L290 386 Z" fill="#DD4E08"/>
  <rect x="126" y="190" width="62" height="16" rx="8" fill="#DD4E08"/>
  <rect x="126" y="236" width="62" height="16" rx="8" fill="#DD4E08"/>
  <rect x="126" y="282" width="62" height="16" rx="8" fill="#DD4E08"/>
  <rect x="324" y="190" width="62" height="16" rx="8" fill="#DD4E08"/>
  <rect x="324" y="236" width="62" height="16" rx="8" fill="#DD4E08"/>
  <rect x="324" y="282" width="62" height="16" rx="8" fill="#DD4E08"/>
</svg>